<?xml version="1.0" encoding="UTF-8" standalone="no"?>
<svg
   xmlns:dc="http://purl.org/dc/elements/1.1/"
   xmlns:cc="http://creativecommons.org/ns#"
   xmlns:rdf="http://www.w3.org/1999/02/22-rdf-syntax-ns#"
   xmlns:svg="http://www.w3.org/2000/svg"
   xmlns="http://www.w3.org/2000/svg"
   xmlns:sodipodi="http://sodipodi.sourceforge.net/DTD/sodipodi-0.dtd"
   xmlns:inkscape="http://www.inkscape.org/namespaces/inkscape"
   version="1.1"
   id="Layer_1"
   x="0px"
   y="0px"
   width="16.934759"
   height="11.716491"
   viewBox="0 0 16.934759 11.716491"
   xml:space="preserve"
   inkscape:version="0.91 r13725"
   sodipodi:docname="car2.svg"><metadata
     id="metadata4143"><rdf:RDF><cc:Work
         rdf:about=""><dc:format>image/svg+xml</dc:format><dc:type
           rdf:resource="http://purl.org/dc/dcmitype/StillImage" /><dc:title></dc:title></cc:Work></rdf:RDF></metadata><defs
     id="defs4141" /><sodipodi:namedview
     pagecolor="#ffffff"
     bordercolor="#666666"
     borderopacity="1"
     objecttolerance="10"
     gridtolerance="10"
     guidetolerance="10"
     inkscape:pageopacity="0"
     inkscape:pageshadow="2"
     inkscape:window-width="1536"
     inkscape:window-height="801"
     id="namedview4139"
     showgrid="false"
     inkscape:zoom="20.313249"
     inkscape:cx="8.3487367"
     inkscape:cy="3.5176537"
     inkscape:window-x="-8"
     inkscape:window-y="-8"
     inkscape:window-maximized="1"
     inkscape:current-layer="Layer_1"
     fit-margin-top="0"
     fit-margin-left="0"
     fit-margin-right="0"
     fit-margin-bottom="0" /><rect
     style="opacity:1;fill:#e2e2e2;fill-opacity:1;stroke:none;stroke-width:1;stroke-linecap:round;stroke-miterlimit:4;stroke-dasharray:none;stroke-dashoffset:0;stroke-opacity:1"
     id="rect4145"
     width="16.048637"
     height="10.633453"
     x="0.44306058"
     y="0.54151851"
     ry="0.84888917" /><path
     d="M 11.507909,4.7602818 10.734746,2.8132264 c -0.05925,-0.1477858 -0.223175,-0.2477005 -0.4083,-0.2488717 l -3.7181337,0 C 6.4231874,2.5655259 6.2592595,2.6654406 6.2000126,2.8132264 L 5.4268493,4.7602818 c -0.4797956,0 -0.8687228,0.3277055 -0.8687228,0.7319756 l 0,2.1959271 0.8687228,0 0,0.7319757 c 0,0.4042702 0.3889272,0.7319754 0.8687228,0.7319754 0.4797956,0 0.8687228,-0.3277052 0.8687228,-0.7319754 l 0,-0.7319757 2.6061683,0 0,0.7319757 c 0,0.4042702 0.3889278,0.7319754 0.8687228,0.7319754 0.479796,0 0.868723,-0.3277052 0.868723,-0.7319754 l 0,-0.7319757 0.868723,0 0,-2.1959271 c 0,-0.4042701 -0.388927,-0.7319756 -0.868723,-0.7319756 z m -5.2123369,2.195927 c -0.4797956,0 -0.8687228,-0.3277055 -0.8687228,-0.7319757 0,-0.4042701 0.3889272,-0.7319757 0.8687228,-0.7319757 0.4797956,0 0.8687228,0.3277056 0.8687228,0.7319757 0,0.4042702 -0.3889272,0.7319757 -0.8687228,0.7319757 z m 0,-2.195927 0.5386081,-1.4639514 3.2663978,0 0.538608,1.4639514 -4.3436139,0 z m 4.3436139,2.195927 c -0.479795,0 -0.8687228,-0.3277055 -0.8687228,-0.7319757 0,-0.4042701 0.3889278,-0.7319757 0.8687228,-0.7319757 0.479796,0 0.868723,0.3277056 0.868723,0.7319757 0,0.4042702 -0.388927,0.7319757 -0.868723,0.7319757 z"
     id="path4137"
     style="fill:#ffffff;fill-opacity:1"
     inkscape:connector-curvature="0" /></svg>